# xmcd
#
# Track frame offsets:
#	150
#	10083
#	18645
#	29167
#	40249
#	52588
#	62683
#	72888
#	80769
#	90646
#	96362
#	105155
#	120222
#	129804
#	143374
#	149418
#
# Disc length: 2157 seconds
#
# Revision: 0
# Processed by: cddbd v1.5.2PL0 Copyright (c) Steve Scherf et al.
# Submitted via: EasyCDDAExtractor 2010.6.0.0
#
DISCID=c6086b10
DTITLE=Johnny Cash - The Collection. CD 4
DYEAR=2010
DGENRE=Gospel, R&R, Country
TTITLE0=Hey Porter
TTITLE1=I Forgot To Remember To Forget
TTITLE2=Cold, Cold Heart
TTITLE3=Don't Make Me Go
TTITLE4=Give My Love To Rose
TTITLE5=I Was There When It Happened
TTITLE6=Straight A's In Love
TTITLE7=The Wreck Of The Old '97
TTITLE8=Hank And Joe And Me
TTITLE9=My Treasure
TTITLE10=I Want To Go Home
TTITLE11=Rockabilly Blues
TTITLE12=What Do I Care
TTITLE13=Don't Take Your Guns To Town
TTITLE14=You Tell Me
TTITLE15=My Grandfather's Clock (Instrumental)
EXTD=
EXTT0=
EXTT1=
EXTT2=
EXTT3=
EXTT4=
EXTT5=
EXTT6=
EXTT7=
EXTT8=
EXTT9=
EXTT10=
EXTT11=
EXTT12=
EXTT13=
EXTT14=
EXTT15=
PLAYORDER=
